<svg width="12" height="12" viewBox="0 0 12 12" fill="none" xmlns="http://www.w3.org/2000/svg">
<path d="M4.06173 11.9998C2.72779 7.60432 5.54636 5.9994 5.54636 5.9994C5.34916 8.34489 6.68205 10.1722 6.68205 10.1722C7.17227 10.0243 8.10794 9.33302 8.10794 9.33302C8.10794 10.1722 7.61423 11.9988 7.61423 11.9988C7.61423 11.9988 9.34258 10.6624 9.88665 8.44279C10.43 6.22318 8.85166 3.99482 8.85166 3.99482C8.94677 5.56582 8.41529 7.11095 7.37402 8.29139C7.42612 8.23125 7.46982 8.16447 7.50339 8.09209C7.69046 7.71796 7.99081 6.74556 7.81493 4.49378C7.56738 1.33289 4.70334 0 4.70334 0C4.9502 1.92591 4.20998 2.36962 2.47603 6.02527C0.74209 9.68023 4.06173 11.9998 4.06173 11.9998Z" fill="white"/>
</svg>
