<svg width="12" height="12" viewBox="0 0 12 12" fill="none" xmlns="http://www.w3.org/2000/svg">
<path d="M6 0C2.6865 0 0 2.6865 0 6C0 9.3135 2.6865 12 6 12C9.3135 12 12 9.3135 12 6C12 2.6865 9.3135 0 6 0ZM6 9.83C5.531 9.83 5.21 9.4685 5.21 9C5.21 8.518 5.5445 8.17 6 8.17C6.4815 8.17 6.79 8.518 6.79 9C6.79 9.469 6.4815 9.83 6 9.83ZM6.311 6.6605C6.1915 7.068 5.815 7.075 5.6895 6.6605C5.545 6.1825 5.0315 4.368 5.0315 3.1895C5.0315 1.6345 6.977 1.627 6.977 3.1895C6.9765 4.375 6.4355 6.2365 6.311 6.6605Z" fill="white"/>
</svg>
