<svg width="8" height="9" viewBox="0 0 8 9" fill="none" xmlns="http://www.w3.org/2000/svg">
<path d="M4.49906 4.42829H3.3384V2.71401H4.49906C4.65298 2.71401 4.80057 2.7742 4.9094 2.88138C5.01825 2.98854 5.07939 3.13388 5.07939 3.28544V3.85686C5.08452 3.93321 5.07303 4.00977 5.04567 4.08137C5.01832 4.15299 4.97575 4.21803 4.92081 4.27215C4.86585 4.32624 4.79979 4.36816 4.72706 4.39509C4.65434 4.42203 4.57659 4.43335 4.49906 4.42829Z" fill="white"/>
<path fill-rule="evenodd" clip-rule="evenodd" d="M0 0H5.56572L5.71429 0.129375L8 2.0025V9H0V0ZM2.75806 4.42829V2.14258H4.49906C4.80688 2.14258 5.10211 2.26299 5.31977 2.47731C5.53743 2.69163 5.65972 2.98233 5.65972 3.28544V3.85686C5.66629 4.00867 5.64077 4.16017 5.58477 4.30176C5.52875 4.44334 5.44349 4.57193 5.33438 4.67937C5.22527 4.78681 5.09467 4.87076 4.95088 4.9259C4.80709 4.98106 4.65322 5.00619 4.49906 4.99972H3.3384V5.57115H5.07939V6.14258H3.3384V7.28543H2.75806V6.14258H2.17773V5.57115H2.75806V4.99972H2.17773V4.42829H2.75806Z" fill="white"/>
</svg>
