<?xml version="1.0"?>
<svg xmlns="http://www.w3.org/2000/svg" xmlns:xlink="http://www.w3.org/1999/xlink" version="1.1" id="Capa_1" x="0px" y="0px" viewBox="0 0 512 512" style="enable-background:new 0 0 512 512;" xml:space="preserve"  class=""><g><g>
	<path d="M346,420c8.284,0,15-6.716,15-15v-45h136c8.284,0,15-6.716,15-15V45c0-8.284-6.716-15-15-15h-78.58   C412.228,12.541,395.555,0,376,0s-36.228,12.541-42.42,30h-35.16C292.228,12.541,275.555,0,256,0c-19.555,0-36.228,12.541-42.42,30   H178.42C172.228,12.541,155.555,0,136,0S99.772,12.541,93.58,30H15C6.716,30,0,36.716,0,45v300c0,8.284,6.716,15,15,15h136v45   c0,8.284,6.716,15,15,15h45v62h-45c-8.284,0-15,6.716-15,15s6.716,15,15,15h180c8.284,0,15-6.716,15-15s-6.716-15-15-15h-45v-62   H346z M331,390h-30v-30h30V390z M376,30c8.271,0,15,6.729,15,15v15h-30V45C361,36.729,367.729,30,376,30z M256,30   c8.271,0,15,6.729,15,15v15h-30V45C241,36.729,247.729,30,256,30z M136,30c8.271,0,15,6.729,15,15v15h-30V45   C121,36.729,127.729,30,136,30z M30,60h61v15c0,8.284,6.716,15,15,15h60c8.284,0,15-6.716,15-15V60h30v15c0,8.284,6.716,15,15,15   h60c8.284,0,15-6.716,15-15V60h30v15c0,8.284,6.716,15,15,15h60c8.284,0,15-6.716,15-15V60h61v270H30V60z M181,390v-30h30v30H181z    M241,482V360h30v122H241z" data-original="#000000" class="active-path" data-old_color="#ffffff" fill="#ffffff"/>
	<path d="M286,210h120c8.284,0,15-6.716,15-15s-6.716-15-15-15H286c-8.284,0-15,6.716-15,15S277.716,210,286,210z" data-original="#000000" class="active-path" data-old_color="#ffffff" fill="#ffffff"/>
	<path d="M286,270h120c8.284,0,15-6.716,15-15s-6.716-15-15-15H286c-8.284,0-15,6.716-15,15S277.716,270,286,270z" data-original="#000000" class="active-path" data-old_color="#ffffff" fill="#ffffff"/>
	<path d="M211,165c0-24.813-20.187-45-45-45s-45,20.187-45,45s20.187,45,45,45S211,189.813,211,165z M166,180   c-8.271,0-15-6.729-15-15s6.729-15,15-15s15,6.729,15,15S174.271,180,166,180z" data-original="#000000" class="active-path" data-old_color="#ffffff" fill="#ffffff"/>
	<path d="M241,285c0-41.355-33.645-75-75-75s-75,33.645-75,75c0,8.284,6.716,15,15,15h120C234.284,300,241,293.284,241,285z    M123.57,270c6.191-17.461,22.874-30,42.43-30s36.239,12.539,42.43,30H123.57z" data-original="#000000" class="active-path" data-old_color="#ffffff" fill="#ffffff"/>
</g></g> </svg>
