<?xml version="1.0"?>
<svg xmlns="http://www.w3.org/2000/svg" xmlns:xlink="http://www.w3.org/1999/xlink" version="1.1" id="Capa_1" x="0px" y="0px" viewBox="0 0 447.216 447.216" style="enable-background:new 0 0 447.216 447.216;" xml:space="preserve" class=""><g><g>
	<g>
		<g>
			<path d="M150.465,154.122h240.849c5.771,0,10.449-4.678,10.449-10.449V72.62c0-5.771-4.678-10.449-10.449-10.449H150.465     c-5.771,0-10.449,4.678-10.449,10.449v71.053C140.016,149.444,144.694,154.122,150.465,154.122z M160.914,83.069h219.951v50.155     H160.914V83.069z" data-original="#000000" class="active-path" data-old_color="#ffffff" fill="#ffffff"/>
			<path d="M436.767,22.465H104.49c-5.771,0-10.449,4.678-10.449,10.449v187.559H10.449C4.678,220.473,0,225.152,0,230.922v136.359     c0,31.74,25.73,57.469,57.469,57.469h337.502c28.854,0,52.245-23.391,52.245-52.245V32.914     C447.216,27.144,442.538,22.465,436.767,22.465z M94.041,367.282c0,20.198-16.374,36.571-36.571,36.571     c-20.198,0-36.571-16.374-36.571-36.571v-125.91h73.143V367.282z M426.318,372.506c0,17.312-14.034,31.347-31.347,31.347H101.878     c8.584-10.238,13.218-23.212,13.061-36.571V43.363h311.38V372.506z" data-original="#000000" class="active-path" data-old_color="#ffffff" fill="#ffffff"/>
			<path d="M150.465,185.469h240.849c5.771,0,10.449-4.678,10.449-10.449s-4.678-10.449-10.449-10.449H150.465     c-5.771,0-10.449,4.678-10.449,10.449S144.694,185.469,150.465,185.469z" data-original="#000000" class="active-path" data-old_color="#ffffff" fill="#ffffff"/>
			<path d="M150.465,216.816h240.849c5.771,0,10.449-4.678,10.449-10.449c0-5.771-4.678-10.449-10.449-10.449H150.465     c-5.771,0-10.449,4.678-10.449,10.449C140.016,212.138,144.694,216.816,150.465,216.816z" data-original="#000000" class="active-path" data-old_color="#ffffff" fill="#ffffff"/>
			<path d="M150.465,248.163h240.849c5.771,0,10.449-4.678,10.449-10.449s-4.678-10.449-10.449-10.449H150.465     c-5.771,0-10.449,4.678-10.449,10.449S144.694,248.163,150.465,248.163z" data-original="#000000" class="active-path" data-old_color="#ffffff" fill="#ffffff"/>
			<path d="M391.314,258.612H307.2c-5.771,0-10.449,4.678-10.449,10.449s4.678,10.449,10.449,10.449h84.114     c5.771,0,10.449-4.678,10.449-10.449S397.085,258.612,391.314,258.612z" data-original="#000000" class="active-path" data-old_color="#ffffff" fill="#ffffff"/>
			<path d="M391.314,289.959H307.2c-5.771,0-10.449,4.678-10.449,10.449s4.678,10.449,10.449,10.449h84.114     c5.771,0,10.449-4.678,10.449-10.449S397.085,289.959,391.314,289.959z" data-original="#000000" class="active-path" data-old_color="#ffffff" fill="#ffffff"/>
			<path d="M391.314,321.306H307.2c-5.771,0-10.449,4.678-10.449,10.449s4.678,10.449,10.449,10.449h84.114     c5.771,0,10.449-4.678,10.449-10.449S397.085,321.306,391.314,321.306z" data-original="#000000" class="active-path" data-old_color="#ffffff" fill="#ffffff"/>
			<path d="M150.465,373.551h115.461c5.771,0,10.449-4.678,10.449-10.449v-94.041c0-5.771-4.678-10.449-10.449-10.449H150.465     c-5.771,0-10.449,4.678-10.449,10.449v94.041C140.016,368.873,144.694,373.551,150.465,373.551z M160.914,279.51h94.563v73.143     h-94.563V279.51z" data-original="#000000" class="active-path" data-old_color="#ffffff" fill="#ffffff"/>
			<path d="M391.314,352.653H307.2c-5.771,0-10.449,4.678-10.449,10.449s4.678,10.449,10.449,10.449h84.114     c5.771,0,10.449-4.678,10.449-10.449S397.085,352.653,391.314,352.653z" data-original="#000000" class="active-path" data-old_color="#ffffff" fill="#ffffff"/>
		</g>
	</g>
</g></g> </svg>
