<?xml version="1.0"?>
<svg xmlns="http://www.w3.org/2000/svg" xmlns:xlink="http://www.w3.org/1999/xlink" version="1.1" id="Capa_1" x="0px" y="0px" viewBox="0 0 480.653 480.653" style="enable-background:new 0 0 480.653 480.653;" xml:space="preserve"  class=""><g><g>
	<g>
		<path d="M469.159,151.51h-87.771V62.694c-0.567-23.251-19.583-41.803-42.841-41.796H171.363    c-22.506-0.007-40.757,18.231-40.764,40.738c0,0.353,0.004,0.706,0.013,1.058v62.694H11.494    C5.362,125.881,0.493,130.749,0,136.882v130.09c0.552,5.854,5.622,10.232,11.494,9.927h14.629v24.033    c0.286,4.173,2.92,7.82,6.792,9.404l5.224,1.045c2.472-0.18,4.836-1.089,6.792-2.612l39.706-31.869h45.976v141.061    c-0.577,22.499,17.194,41.205,39.693,41.783c0.353,0.009,0.705,0.014,1.058,0.013h167.184    c23.258,0.007,42.274-18.545,42.841-41.796v-104.49h87.771c5.872,0.306,10.942-4.072,11.494-9.927V163.004    C480.16,156.872,475.291,152.003,469.159,151.51z M170.291,41.823c0.357-0.019,0.715-0.028,1.072-0.028h167.184    c11.722-0.013,21.385,9.189,21.943,20.898v26.122H151.51V62.694C150.933,51.745,159.341,42.4,170.291,41.823z M80.98,256    c-2.814,0.069-5.544,0.979-7.837,2.612L47.02,278.988v-12.016c0-5.747-2.612-10.971-8.882-10.971H20.898V146.286h161.959V256    H80.98z M360.49,417.959c-0.558,11.709-10.221,20.911-21.943,20.898H171.363c-10.965,0.015-19.865-8.861-19.881-19.825    c0-0.358,0.009-0.715,0.027-1.073v-31.347h208.98V417.959z M360.49,365.714H151.51v-88.816h40.751    c5.872,0.306,10.942-4.072,11.494-9.927V136.359c-0.28-6.143-5.345-10.978-11.494-10.971H151.51v-15.673h208.98v41.796h-77.322    c-6.132,0.493-11.001,5.362-11.494,11.494v140.539c0.552,5.854,5.622,10.233,11.494,9.927h13.584l39.706,31.869    c1.901,1.618,4.297,2.54,6.792,2.612l5.224-1.045c3.871-1.584,6.506-5.231,6.792-9.404v-24.033h5.224V365.714z M459.755,292.571    H343.249c-6.269,0-8.882,5.224-8.882,10.971v12.016l-26.122-20.375c-2.293-1.633-5.022-2.543-7.837-2.612h-7.837V172.408h167.184    V292.571z" data-original="#000000" class="active-path" data-old_color="#ffffff" fill="#ffffff"/>
	</g>
</g></g> </svg>
