<svg width="15" height="16" viewBox="0 0 15 16" fill="none" xmlns="http://www.w3.org/2000/svg">
<path d="M3.19922 9.6H5.33255V11.7333H3.19922V9.6Z" fill="white"/>
<path d="M8.53372 9.6H6.40039V11.7333H8.53372V9.6Z" fill="white"/>
<path d="M9.5996 9.6H11.7329V11.7333H9.5996V9.6Z" fill="white"/>
<path fill-rule="evenodd" clip-rule="evenodd" d="M3.19948 0C3.78858 0 4.26614 0.477563 4.26614 1.06667V2.13333H10.666V1.06667C10.666 0.477563 11.1436 0 11.7327 0C12.3218 0 12.7993 0.477563 12.7993 1.06667V2.13333L14.9333 2.13333V16H0V2.13333H2.13281V1.06667C2.13281 0.477563 2.61037 0 3.19948 0ZM1.06667 14.9333V6.39999H13.8667V14.9333H1.06667Z" fill="white"/>
</svg>
