<svg width="17" height="16" viewBox="0 0 17 16" fill="none" xmlns="http://www.w3.org/2000/svg">
<path fill-rule="evenodd" clip-rule="evenodd" d="M16.024 12.6425C16.0412 12.7676 16.0281 12.8949 15.9858 13.0137C15.9435 13.1326 15.8732 13.2396 15.7809 13.3256L13.4654 15.5601C13.3563 15.6834 13.2221 15.7821 13.0718 15.8495C12.9189 15.9257 12.7547 15.9765 12.5855 16H12.2614C11.9121 15.9813 11.5642 15.9427 11.2194 15.8842C10.6132 15.7737 10.0224 15.591 9.45962 15.3401C8.63152 14.9793 7.83725 14.5453 7.08625 14.0434C6.09034 13.3556 5.16709 12.5682 4.33082 11.6932C3.60148 10.9985 2.92791 10.2475 2.31635 9.44718C1.88116 8.82139 1.49413 8.16344 1.15861 7.47902C0.854704 6.93914 0.59901 6.37352 0.394501 5.78871C0.255878 5.38833 0.147517 4.97811 0.070333 4.5615C0.0183438 4.2829 -0.00493286 3.9997 0.000868414 3.71635V3.38061C0.0316042 3.21007 0.0902801 3.04578 0.17453 2.89436C0.244904 2.74242 0.34307 2.60499 0.463965 2.48915L2.77945 0.243126C2.90339 0.101465 3.07801 0.014154 3.2657 0C3.40348 0 3.53754 0.0446863 3.64776 0.127352C3.76409 0.211231 3.8625 0.317508 3.93719 0.439942L5.78958 3.89001C5.86618 4.07938 5.86618 4.2911 5.78958 4.48046C5.75481 4.686 5.65783 4.87592 5.51172 5.0246L4.67815 5.85818C4.6698 5.89241 4.6698 5.92814 4.67815 5.96237C4.6703 6.00446 4.6703 6.04764 4.67815 6.08973C4.72461 6.38677 4.81432 6.67541 4.94443 6.94645C5.12893 7.28907 5.33786 7.61794 5.56961 7.93054C5.93191 8.40815 6.33476 8.8536 6.77366 9.26194C7.18737 9.68116 7.63246 10.0682 8.10507 10.4197C8.42236 10.6539 8.755 10.8667 9.10072 11.0564C9.29738 11.1561 9.50278 11.2375 9.71433 11.2996H9.92272H10.0385C10.0779 11.2902 10.1139 11.2702 10.1427 11.2417L11.1152 10.2576C11.3096 10.0847 11.5612 9.98981 11.8214 9.99132C11.9824 9.98297 12.1426 10.019 12.2845 10.0955L15.5609 12.0289C15.6694 12.0836 15.7642 12.1618 15.8384 12.258C15.9125 12.3542 15.9641 12.4659 15.9893 12.5847L16.024 12.6425ZM15.3895 6.64533L10.5038 6.10119L9.9597 1.21552L11.1174 1.08817L11.4659 4.30921L15.3524 0.422724L16.171 1.24137L12.2831 5.12933L15.5169 5.48759L15.3895 6.64533Z" fill="white"/>
</svg>
