<svg  viewBox="0 0 129 97" fill="none" xmlns="http://www.w3.org/2000/svg">
<path d="M56.2303 24.9149C56.2303 38.6748 47.514 49.8294 36.7651 49.8294C26.0146 49.8294 17.3 38.6748 17.3 24.9149C17.3 11.1546 20.1617 0 36.7651 0C53.3685 0 56.2303 11.1546 56.2303 24.9149Z" fill="#E8E8E8"/>
<path d="M104.38 34.386C104.38 45.6157 97.2202 54.7185 88.3864 54.7185C79.5543 54.7185 72.3923 45.6157 72.3923 34.386C72.3923 23.1567 74.7438 14.0534 88.3864 14.0534C102.029 14.0534 104.38 23.1567 104.38 34.386Z" fill="#E8E8E8"/>
<path d="M76.5162 56.9208C73.223 57.6662 72.7424 61.7589 74.1238 64.84C76.4054 69.9289 77.0069 76.9224 77.1574 86.865C77.1793 88.3981 77.1927 88.6634 77.1977 88.5266C77.1968 89.3401 77.856 90 78.6694 90H105C107.761 90 110 87.7614 110 85V63.2488C110 61.4597 109.055 59.7764 107.403 59.0889C105.385 58.249 103.004 57.5401 100.195 56.9068C98.3351 56.4876 96.3949 57.2845 94.7369 58.2252C93.3131 59.033 91.225 59.7855 88.3864 59.7855C85.3666 59.7855 83.1962 58.9339 81.7714 58.0701C80.3017 57.179 78.1926 56.5414 76.5162 56.9208Z" fill="#E8E8E8"/>
<path d="M73.5286 88.5266C73.5277 89.3406 72.8675 90 72.0535 90H2.13222C0.955938 90 0.00185484 89.0474 0 87.8711C0.00671387 88.0921 0.0218201 87.9922 0.0553894 86.0864C0.450251 63.8566 3.32845 56.6952 23.0263 52.3695C24.8961 51.9588 26.8513 52.7425 28.4614 53.7781C30.1874 54.8882 32.9065 56.0382 36.7651 56.0382C40.6228 56.0382 43.3415 54.8883 45.0672 53.7782C46.6773 52.7425 48.6327 51.9589 50.5026 52.3695C70.4287 56.7454 73.1427 64.0227 73.4866 86.865C73.5101 88.3981 73.5219 88.6634 73.5286 88.5266Z" fill="#E8E8E8"/>
<path fill-rule="evenodd" clip-rule="evenodd" d="M128.036 86.7224L115.936 66.3622C114.722 64.2894 112.457 63.0028 110.009 63C107.56 62.9972 105.295 64.2784 104.065 66.3623L91.9608 86.7299C90.7057 88.8072 90.6773 91.4103 91.893 93.5332C93.1098 95.6578 95.3881 96.9801 97.8662 96.9999L122.113 97C124.617 96.976 126.891 95.6579 128.107 93.5351C129.323 91.4148 129.295 88.8176 128.036 86.7224Z" fill="#EF6546"/>
<path d="M109.997 91.0015C111.002 91.0015 111.816 90.1955 111.816 89.2013C111.816 88.2071 111.002 87.4012 109.997 87.4012C108.993 87.4012 108.179 88.2071 108.179 89.2013C108.179 90.1955 108.993 91.0015 109.997 91.0015Z" fill="white"/>
<path d="M111.822 73H108.184V85.601H111.822V73Z" fill="white"/>
</svg>
