<svg width="128" height="98" viewBox="0 0 128 98" fill="none" xmlns="http://www.w3.org/2000/svg">
<path d="M56.2303 24.9149C56.2303 38.6748 47.514 49.8294 36.7651 49.8294C26.0146 49.8294 17.3 38.6748 17.3 24.9149C17.3 11.1546 20.1617 0 36.7651 0C53.3685 0 56.2303 11.1546 56.2303 24.9149Z" fill="#E8E8E8"/>
<path d="M104.38 34.386C104.38 45.6157 97.2202 54.7185 88.3864 54.7185C79.5543 54.7185 72.3923 45.6157 72.3923 34.386C72.3923 23.1567 74.7438 14.0534 88.3864 14.0534C102.029 14.0534 104.38 23.1567 104.38 34.386Z" fill="#E8E8E8"/>
<path d="M76.5162 56.9208C73.223 57.6662 72.7424 61.7589 74.1238 64.84C76.4054 69.9289 77.0069 76.9224 77.1574 86.865C77.1793 88.3981 77.1927 88.6634 77.1977 88.5266C77.1968 89.3401 77.856 90 78.6694 90H105C107.761 90 110 87.7614 110 85V63.2488C110 61.4597 109.055 59.7764 107.403 59.0889C105.385 58.249 103.004 57.5401 100.195 56.9068C98.3351 56.4876 96.3949 57.2845 94.7369 58.2252C93.3131 59.033 91.225 59.7855 88.3864 59.7855C85.3666 59.7855 83.1962 58.9339 81.7714 58.0701C80.3017 57.179 78.1926 56.5414 76.5162 56.9208Z" fill="#E8E8E8"/>
<path d="M73.5286 88.5266C73.5277 89.3406 72.8675 90 72.0535 90H2.13222C0.955938 90 0.00185484 89.0474 0 87.8711C0.00671387 88.0921 0.0218201 87.9922 0.0553894 86.0864C0.450251 63.8566 3.32845 56.6952 23.0263 52.3695C24.8961 51.9588 26.8513 52.7425 28.4614 53.7781C30.1874 54.8882 32.9065 56.0382 36.7651 56.0382C40.6228 56.0382 43.3415 54.8883 45.0672 53.7782C46.6773 52.7425 48.6327 51.9589 50.5026 52.3695C70.4287 56.7454 73.1427 64.0227 73.4866 86.865C73.5101 88.3981 73.5219 88.6634 73.5286 88.5266Z" fill="#E8E8E8"/>
<path fill-rule="evenodd" clip-rule="evenodd" d="M98.1256 92.8744C98.1256 92.8744 96.2335 89.1612 96.6946 86.2184C94.2876 84.4636 93 82.5794 93 80.5C93 78.4206 94.2876 76.5364 96.6946 74.7816C96.2335 71.8388 98.1256 68.1256 98.1256 68.1256C98.1256 68.1256 101.839 66.2335 104.782 66.6946C106.536 64.2876 108.421 63 110.5 63C112.579 63 114.464 64.2876 116.218 66.6946C119.161 66.2335 122.874 68.1256 122.874 68.1256C122.874 68.1256 124.767 71.8388 124.305 74.7816C126.712 76.5364 128 78.4206 128 80.5C128 82.5794 126.712 84.4636 124.305 86.2184C124.767 89.1612 122.874 92.8744 122.874 92.8744C122.874 92.8744 119.161 94.7665 116.218 94.3054C114.464 96.7124 112.579 98 110.5 98C108.421 98 106.536 96.7124 104.782 94.3054C101.839 94.7665 98.1256 92.8744 98.1256 92.8744Z" fill="#8AB717"/>
<path d="M116.021 74.6035L109.192 81.4331L105.544 77.7853L103.294 80.0352L109.192 85.9329L118.271 76.8534L116.021 74.6035Z" fill="white"/>
</svg>
