<svg width="36" height="32" viewBox="0 0 36 32" fill="none" xmlns="http://www.w3.org/2000/svg">
<path fill-rule="evenodd" clip-rule="evenodd" d="M34.8576 22.3269L23.4694 3.16445C22.3261 1.21354 20.1952 0.00265968 17.8906 4.37708e-06C15.5859 -0.00265121 13.4542 1.20323 12.2967 3.16453L0.904309 22.334C-0.276999 24.2892 -0.303724 26.7391 0.840505 28.7371C1.98568 30.7368 4.12995 31.9812 6.46231 31.9999L29.2828 32C31.6394 31.9774 33.7796 30.7368 34.9246 28.7389C36.0682 26.7434 36.0427 24.2989 34.8576 22.3269Z" fill="#EF6546"/>
<path d="M17.8797 26.3547C18.8251 26.3547 19.5915 25.5961 19.5915 24.6604C19.5915 23.7247 18.8251 22.9662 17.8797 22.9662C16.9343 22.9662 16.168 23.7247 16.168 24.6604C16.168 25.5961 16.9343 26.3547 17.8797 26.3547Z" fill="white"/>
<path d="M19.5965 9.41211H16.173V21.2719H19.5965V9.41211Z" fill="white"/>
</svg>
