<svg width="90" height="90" viewBox="0 0 90 90" fill="none" xmlns="http://www.w3.org/2000/svg">
<path fill-rule="evenodd" clip-rule="evenodd" d="M90 50.7246C90 51.5879 89.4453 52.3545 88.625 52.624L77.3262 56.3379C77.1201 57.0137 76.8652 57.6738 76.5889 58.3262C76.3691 58.8438 76.1357 59.3574 75.9023 59.8711L81.1143 70.3428C81.4971 71.1123 81.3457 72.04 80.7383 72.6484L72.6484 80.7383C72.04 81.3457 71.1123 81.4971 70.3428 81.1143L59.8711 75.9023C58.7109 76.4297 57.5508 76.957 56.3379 77.3262L52.624 88.625C52.3545 89.4453 51.5879 90 50.7246 90H39.2754C38.7637 90 38.2861 89.8047 37.9258 89.4756C37.6777 89.249 37.4854 88.959 37.376 88.625L33.6611 77.3262C32.998 77.124 32.3506 76.874 31.71 76.6025C31.1797 76.3789 30.6543 76.1406 30.1289 75.9014L19.6572 81.1143C18.8877 81.4971 17.96 81.3457 17.3516 80.7383L9.26172 72.6484C8.6543 72.04 8.50293 71.1123 8.88574 70.3428L14.0977 59.8711C13.5703 58.7109 13.043 57.5508 12.6738 56.3379L1.375 52.624C0.554688 52.3545 0 51.5879 0 50.7246V39.2754C0 38.4121 0.554688 37.6455 1.375 37.376L12.6738 33.6621C13.043 32.4492 13.5703 31.2891 14.0977 30.1289L8.88574 19.6572C8.50293 18.8877 8.6543 17.96 9.26172 17.3516L17.3516 9.26172C17.96 8.6543 18.8877 8.50293 19.6572 8.88574L30.1289 14.0977C31.2891 13.5703 32.4492 13.043 33.6621 12.6738L37.376 1.375C37.6455 0.554688 38.4121 0 39.2754 0H50.7246C51.5879 0 52.3545 0.554688 52.624 1.375L56.3379 12.6738C57.123 12.9131 57.8867 13.2188 58.6416 13.5479C59.0527 13.7266 59.4619 13.9121 59.8711 14.0977L70.3428 8.88574C71.1123 8.50293 72.04 8.6543 72.6484 9.26172L80.7383 17.3516C81.3457 17.96 81.4971 18.8877 81.1143 19.6572L75.9023 30.1289C76.1035 30.5723 76.3047 31.0156 76.498 31.4619C76.8096 32.1836 77.0977 32.9131 77.3262 33.6621L88.625 37.376C89.4453 37.6455 90 38.4121 90 39.2754V50.7246ZM45 21.2695C39.1992 21.2695 34.4531 26.0156 34.4531 31.8164C34.4531 37.6172 39.1992 42.3633 45 42.3633C36.2988 42.3633 29.1797 49.4824 29.1797 58.1836V61.457C29.1797 62.5615 30.0752 63.457 31.1797 63.457H58.8203C59.9248 63.457 60.8203 62.5615 60.8203 61.457V58.1836C60.8203 49.4824 53.7012 42.3633 45 42.3633C50.8008 42.3633 55.5469 37.6172 55.5469 31.8164C55.5469 26.0156 50.8008 21.2695 45 21.2695Z" fill="#9173D0"/>
</svg>
