<svg width="5" height="5" viewBox="0 0 5 5" fill="none" xmlns="http://www.w3.org/2000/svg">
<path d="M0.121755 4.29125C-0.0403337 4.45334 -0.0403395 4.71615 0.121755 4.87824C0.283849 5.04034 0.546661 5.04033 0.70875 4.87824L2.49993 3.08706L4.29125 4.87838C4.45334 5.04048 4.71615 5.04048 4.87824 4.87838C5.04034 4.71629 5.04034 4.45348 4.87824 4.29139L3.08693 2.50007L4.87843 0.708565C5.04052 0.546471 5.04052 0.283665 4.87843 0.121571C4.71633 -0.0405236 4.45353 -0.0405236 4.29143 0.121571L2.49993 1.91307L0.708566 0.121709C0.546471 -0.0403855 0.283665 -0.0403855 0.121571 0.121709C-0.0405236 0.283803 -0.0405236 0.546609 0.121571 0.708704L1.91294 2.50007L0.121755 4.29125Z" fill="#fff"/>
</svg>
