<svg width="18" height="12" viewBox="0 0 18 12" fill="none" xmlns="http://www.w3.org/2000/svg">
<path d="M3.52635 12H12.8688C15.3329 12 17.3333 9.99163 17.3333 7.52482C17.3333 4.92799 15.4004 2.89019 12.9254 2.85982C12.4893 1.99308 11.8323 1.26782 11.0263 0.763429C10.2204 0.259037 9.29653 -0.00504978 8.35592 7.31398e-05C6.23409 7.31398e-05 4.28018 1.23395 3.36939 3.14361C3.42232 3.14361 3.4789 3.14361 3.53274 3.14361C4.31105 3.14054 5.07967 3.32302 5.7796 3.67703C6.08955 3.27733 6.48213 2.95542 6.92816 2.73523C7.37419 2.51503 7.8622 2.40223 8.35592 2.40518C9.58431 2.40518 10.6475 3.20815 11.0627 4.45437L11.3365 5.26398H12.8725C14.0707 5.26398 15.0089 6.25773 15.0089 7.52862C15.0089 8.69131 14.0707 9.60438 12.8725 9.60438H3.52635C2.85467 9.60438 2.33083 9.10229 2.33083 8.46542C2.33083 7.82855 2.78713 7.14612 3.52635 7.14612C4.21447 7.14612 4.45942 7.52862 4.60099 8.00427H6.92816C6.92816 5.91617 5.49578 4.74575 3.52361 4.74575C1.58156 4.74575 0 6.41434 0 8.46542C0.00638832 10.4121 1.58796 12 3.52635 12Z" fill="#B1B1B1"/>
</svg>
