<svg width="15" height="15" viewBox="0 0 15 15" fill="none" xmlns="http://www.w3.org/2000/svg">
<path d="M11.2069 6.83624C11.131 6.66845 10.9641 6.56159 10.7804 6.56159H8.90563V0.468685C8.90563 0.209971 8.69566 0 8.43694 0H6.56219C6.30347 0 6.0935 0.209971 6.0935 0.468685V6.56159H4.21875C4.03502 6.56159 3.86817 6.66939 3.79224 6.83624C3.71537 7.00403 3.74537 7.19994 3.86629 7.33867L7.14711 11.0882C7.23616 11.1903 7.36458 11.2484 7.49957 11.2484C7.63455 11.2484 7.76297 11.1894 7.85202 11.0882L11.1328 7.33867C11.2547 7.20088 11.2828 7.00403 11.2069 6.83624Z" fill="white"/>
<path d="M12.9982 10.3107V12.5604H1.99972V10.3107H0V13.3103C0 13.7249 0.447938 14.0602 0.999862 14.0602H13.9981C14.551 14.0602 14.9979 13.7249 14.9979 13.3103V10.3107H12.9982Z" fill="white"/>
</svg>
