<svg width="11" height="11" viewBox="0 0 11 11" fill="none" xmlns="http://www.w3.org/2000/svg">
<path fill-rule="evenodd" clip-rule="evenodd" d="M10.15 5.5C10.15 8.06812 8.06812 10.15 5.5 10.15C2.93188 10.15 0.85 8.06812 0.85 5.5C0.85 2.93188 2.93188 0.85 5.5 0.85C8.06812 0.85 10.15 2.93188 10.15 5.5ZM11 5.5C11 8.53757 8.53757 11 5.5 11C2.46243 11 0 8.53757 0 5.5C0 2.46243 2.46243 0 5.5 0C8.53757 0 11 2.46243 11 5.5ZM5.075 2.0625V5.75V5.9423L5.21945 6.06925L7.28195 7.88174L7.84305 7.24326L5.925 5.5577V2.0625H5.075Z" fill="#BDBDBD"/>
</svg>
