<svg width="11" height="11" viewBox="0 0 11 11" fill="none" xmlns="http://www.w3.org/2000/svg">
<path d="M10.949 0.304167C10.8604 0.101471 10.7072 0.000109255 10.4886 0H0.507055C0.288736 0 0.135314 0.101471 0.0469263 0.304167C-0.0414067 0.517242 -0.00505198 0.699316 0.156154 0.850034L4.00077 4.69454V8.48447C4.00077 8.61981 4.05018 8.73663 4.14892 8.83556L6.14515 10.8317C6.23881 10.9305 6.35574 10.98 6.49616 10.98C6.55849 10.98 6.62344 10.9669 6.69105 10.9409C6.89388 10.8525 6.99532 10.6992 6.99532 10.4808V4.69457L10.8398 0.850061C11.0011 0.699344 11.0373 0.517324 10.949 0.304167Z" fill="#4D4D4D"/>
</svg>
