<svg width="12" height="12" viewBox="0 0 12 12" fill="none" xmlns="http://www.w3.org/2000/svg">
<path d="M11.9945 9.48191C12.0074 9.57567 11.9976 9.67114 11.9659 9.7603C11.9342 9.84946 11.8816 9.92968 11.8125 9.99421L10.0793 11.67C9.99762 11.7626 9.89717 11.8366 9.78466 11.8871C9.67025 11.9443 9.54732 11.9824 9.42068 12H9.17803C8.91661 11.986 8.6562 11.957 8.39809 11.9132C7.94433 11.8303 7.5021 11.6933 7.08084 11.5051C6.46098 11.2345 5.86644 10.909 5.30429 10.5326C4.55882 10.0167 3.86774 9.42612 3.24177 8.7699C2.69583 8.24888 2.19164 7.68564 1.73387 7.08538C1.40811 6.61604 1.11841 6.12258 0.867258 5.60926C0.639774 5.20436 0.448379 4.78014 0.295297 4.34153C0.191533 4.04125 0.110421 3.73358 0.0526465 3.42113C0.0137309 3.21218 -0.00369241 2.99978 0.000650036 2.78726C0.000650036 2.60492 0.000650036 2.55282 0.000650036 2.53546C0.0236568 2.40755 0.0675776 2.28433 0.130641 2.17077C0.183319 2.05682 0.256799 1.95374 0.347293 1.86686L2.08051 0.182344C2.17328 0.0760988 2.30399 0.0106155 2.44449 0C2.54762 0 2.64796 0.0335148 2.73047 0.0955137C2.81755 0.158424 2.89121 0.238131 2.94712 0.329957L4.33369 2.91751C4.39103 3.05953 4.39103 3.21833 4.33369 3.36035C4.30766 3.5145 4.23507 3.65694 4.12571 3.76845L3.50175 4.39363C3.4955 4.41931 3.4955 4.44611 3.50175 4.47178C3.49587 4.50335 3.49587 4.53573 3.50175 4.56729C3.53653 4.79008 3.60368 5.00656 3.70107 5.20984C3.83917 5.4668 3.99556 5.71346 4.16904 5.9479C4.44023 6.30611 4.74178 6.6402 5.07031 6.94645C5.37998 7.26087 5.71315 7.55115 6.06691 7.81476C6.30442 7.99044 6.5534 8.14999 6.81219 8.29233C6.9594 8.36707 7.11315 8.42811 7.2715 8.47468H7.42748H7.51415C7.54364 8.46767 7.57063 8.45265 7.59214 8.43126L8.32009 7.6932C8.46564 7.5635 8.65394 7.49236 8.84872 7.49349C8.96923 7.48723 9.08915 7.51426 9.19537 7.57164L11.6479 9.02171C11.7291 9.06267 11.8 9.12139 11.8555 9.19353C11.911 9.26567 11.9497 9.34939 11.9685 9.43849L11.9945 9.48191Z" fill="#4D4D4D"/>
</svg>
