<svg width="16" height="16" viewBox="0 0 16 16" fill="none" xmlns="http://www.w3.org/2000/svg">
<path fill-rule="evenodd" clip-rule="evenodd" d="M14.02 0H1.98C0.886476 0 0 0.886476 0 1.98V11.02C0 12.1135 0.886476 13 1.98 13H3V16L8 13H14.02C15.1135 13 16 12.1135 16 11.02V1.98C16 0.886476 15.1135 0 14.02 0ZM6 2H7H9C9.53043 2 10.0391 2.21071 10.4142 2.58579C10.7893 2.96086 11 3.46957 11 4V5C11.0113 5.26566 10.9673 5.53078 10.8708 5.77856C10.7743 6.02633 10.6274 6.25136 10.4394 6.43939C10.2514 6.62741 10.0263 6.77433 9.77856 6.87083C9.53078 6.96734 9.26566 7.01132 9 7H7V8H10V9H7V11H6V9H5V8H6V7H5V6H6V3V2ZM9 6H7V3H9C9.26522 3 9.51957 3.10536 9.70711 3.29289C9.89464 3.48043 10 3.73478 10 4V5C10.0088 5.13361 9.98903 5.26756 9.9419 5.3929C9.89477 5.51823 9.82141 5.63205 9.72673 5.72673C9.63205 5.82141 9.51823 5.89477 9.3929 5.9419C9.26756 5.98903 9.13361 6.00884 9 6Z" fill="#FF423E"/>
</svg>
