<svg width="16" height="16" viewBox="0 0 16 16" fill="none" xmlns="http://www.w3.org/2000/svg">
<path fill-rule="evenodd" clip-rule="evenodd" d="M16 8C16 12.4183 12.4183 16 8 16C3.58172 16 0 12.4183 0 8C0 3.58172 3.58172 0 8 0C12.4183 0 16 3.58172 16 8ZM6 4H7H9C9.53043 4 10.0391 4.21071 10.4142 4.58579C10.7893 4.96086 11 5.46957 11 6V7C11.0113 7.26566 10.9673 7.53078 10.8708 7.77856C10.7743 8.02633 10.6274 8.25136 10.4394 8.43939C10.2514 8.62741 10.0263 8.77433 9.77856 8.87083C9.53078 8.96733 9.26566 9.01132 9 9H7V10H10V11H7V13H6V11H5V10H6V9H5V8H6V5V4ZM9.3929 7.9419C9.26757 7.98903 9.13361 8.00884 9 8H7V5H9C9.26522 5 9.51957 5.10536 9.70711 5.29289C9.89464 5.48043 10 5.73478 10 6V7C10.0088 7.13361 9.98903 7.26756 9.9419 7.3929C9.89477 7.51823 9.82141 7.63205 9.72673 7.72673C9.63205 7.82141 9.51823 7.89477 9.3929 7.9419Z" fill="#C1A631"/>
</svg>
