<svg width="134" height="121" viewBox="0 0 134 121" fill="none" xmlns="http://www.w3.org/2000/svg">
<path d="M73.3906 20.455H66.2422V58.2353H73.3906V20.455Z" fill="#E8E8E8"/>
<path d="M48.7285 40.5747H41.5801V58.2353H48.7285V40.5747Z" fill="#E8E8E8"/>
<path d="M90.9043 51.9758H98.0527V58.2353H90.9043V51.9758Z" fill="#E8E8E8"/>
<path fill-rule="evenodd" clip-rule="evenodd" d="M118.426 0H3.57422C1.60031 0 0 1.50155 0 3.35328V77.349C0 79.2012 1.60031 80.7023 3.57422 80.7023L39.8213 80.7027L39.8299 80.7023H82.1508L82.1594 80.7027L118.426 80.7023C120.4 80.7023 122 79.2012 122 77.349V3.35328C122 1.50155 120.4 0 118.426 0ZM109.955 64.9419H27.2832V66.5067C27.2832 68.3589 25.6829 69.86 23.709 69.86C21.7351 69.86 20.1348 68.3585 20.1348 66.5067V64.9419H17.9902C16.0163 64.9419 14.416 63.4403 14.416 61.5886C14.416 59.7369 16.0163 58.2353 17.9902 58.2353H20.1345V14.1956C20.1345 12.3438 21.7348 10.8423 23.7088 10.8423C25.6827 10.8423 27.283 12.3438 27.283 14.1956V58.2353H34.4314V37.2214C34.4314 35.3697 36.0317 33.8681 38.0056 33.8681H52.3025C54.2764 33.8681 55.8767 35.3697 55.8767 37.2214V58.2353H59.0938V17.1017C59.0938 15.25 60.6941 13.7484 62.668 13.7484H76.9648C78.9388 13.7484 80.5391 15.25 80.5391 17.1017V58.2353H83.7559V48.6226C83.7559 46.7708 85.3562 45.2693 87.3301 45.2693H101.627C103.601 45.2693 105.201 46.7708 105.201 48.6226V58.2353H109.955C111.929 58.2353 113.529 59.7369 113.529 61.5886C113.529 63.4403 111.929 64.9419 109.955 64.9419Z" fill="#E8E8E8"/>
<path d="M85.543 91.1284C85.543 92.6641 86.6012 93.8801 88.1838 94.1953C92.664 95.0865 95.5508 98.7288 95.5508 102.966C95.5508 107.948 91.6673 112 86.2578 112H35.9607C30.6904 112 26.4294 108.022 26.4294 102.942C26.4294 98.7593 29.5452 95.1533 33.8564 94.2311C35.4019 93.9006 36.4373 92.6728 36.4373 91.1725V87.4093H85.543V91.1284Z" fill="#E8E8E8"/>
<path fill-rule="evenodd" clip-rule="evenodd" d="M104.126 115.874C104.126 115.874 102.233 112.161 102.695 109.218C100.288 107.464 99 105.579 99 103.5C99 101.421 100.288 99.5364 102.695 97.7816C102.233 94.8388 104.126 91.1256 104.126 91.1256C104.126 91.1256 107.839 89.2335 110.782 89.6946C112.536 87.2876 114.421 86 116.5 86C118.579 86 120.464 87.2876 122.218 89.6946C125.161 89.2335 128.874 91.1256 128.874 91.1256C128.874 91.1256 130.767 94.8388 130.305 97.7816C132.712 99.5364 134 101.421 134 103.5C134 105.579 132.712 107.464 130.305 109.218C130.767 112.161 128.874 115.874 128.874 115.874C128.874 115.874 125.161 117.767 122.218 117.305C120.464 119.712 118.579 121 116.5 121C114.421 121 112.536 119.712 110.782 117.305C107.839 117.767 104.126 115.874 104.126 115.874Z" fill="#8AB717"/>
<path d="M122.021 97.6035L115.192 104.433L111.544 100.785L109.294 103.035L115.192 108.933L124.271 99.8534L122.021 97.6035Z" fill="white"/>
</svg>
