<svg  viewBox="0 0 126 119" fill="none" xmlns="http://www.w3.org/2000/svg">
<path d="M73.3906 20.455H66.2422V58.2353H73.3906V20.455Z" fill="#E8E8E8"/>
<path d="M48.7285 40.5747H41.5801V58.2353H48.7285V40.5747Z" fill="#E8E8E8"/>
<path d="M90.9043 51.9758H98.0527V58.2353H90.9043V51.9758Z" fill="#E8E8E8"/>
<path fill-rule="evenodd" clip-rule="evenodd" d="M118.426 0H3.57422C1.60031 0 0 1.50155 0 3.35328V77.349C0 79.2012 1.60031 80.7023 3.57422 80.7023L39.8213 80.7027L39.8299 80.7023H82.1508L82.1594 80.7027L118.426 80.7023C120.4 80.7023 122 79.2012 122 77.349V3.35328C122 1.50155 120.4 0 118.426 0ZM109.955 64.9419H27.2832V66.5067C27.2832 68.3589 25.6829 69.86 23.709 69.86C21.7351 69.86 20.1348 68.3584 20.1348 66.5067V64.9419H17.9902C16.0163 64.9419 14.416 63.4403 14.416 61.5886C14.416 59.7369 16.0163 58.2353 17.9902 58.2353H20.1345V14.1956C20.1345 12.3438 21.7348 10.8423 23.7088 10.8423C25.6827 10.8423 27.283 12.3438 27.283 14.1956V58.2353H34.4314V37.2214C34.4314 35.3697 36.0317 33.8681 38.0056 33.8681H52.3025C54.2764 33.8681 55.8767 35.3697 55.8767 37.2214V58.2353H59.0938V17.1017C59.0938 15.25 60.6941 13.7484 62.668 13.7484H76.9648C78.9388 13.7484 80.5391 15.25 80.5391 17.1017V58.2353H83.7559V48.6226C83.7559 46.7708 85.3562 45.2693 87.3301 45.2693H101.627C103.601 45.2693 105.201 46.7708 105.201 48.6226V58.2353H109.955C111.929 58.2353 113.529 59.7369 113.529 61.5886C113.529 63.4403 111.929 64.9419 109.955 64.9419Z" fill="#E8E8E8"/>
<path d="M85.543 91.1284C85.543 92.6641 86.6012 93.8801 88.1838 94.1953C92.664 95.0865 95.5508 98.7288 95.5508 102.966C95.5508 107.948 91.6673 112 86.2578 112H35.9607C30.6904 112 26.4294 108.022 26.4294 102.942C26.4294 98.7593 29.5452 95.1533 33.8564 94.2311C35.4019 93.9006 36.4373 92.6728 36.4373 91.1725V87.4093H85.543V91.1284Z" fill="#E8E8E8"/>
<path fill-rule="evenodd" clip-rule="evenodd" d="M125.036 108.722L112.936 88.3622C111.722 86.2894 109.457 85.0028 107.009 85C104.56 84.9972 102.295 86.2784 101.065 88.3623L88.9608 108.73C87.7057 110.807 87.6773 113.41 88.893 115.533C90.1098 117.658 92.3881 118.98 94.8662 119L119.113 119C121.617 118.976 123.891 117.658 125.107 115.535C126.323 113.415 126.295 110.818 125.036 108.722Z" fill="#EF6546"/>
<path d="M106.997 113.001C108.002 113.001 108.816 112.196 108.816 111.201C108.816 110.207 108.002 109.401 106.997 109.401C105.993 109.401 105.179 110.207 105.179 111.201C105.179 112.196 105.993 113.001 106.997 113.001Z" fill="white"/>
<path d="M108.822 95H105.184V107.601H108.822V95Z" fill="white"/>
</svg>
