<svg width="35" height="35" viewBox="0 0 35 35" fill="none" xmlns="http://www.w3.org/2000/svg">
<path fill-rule="evenodd" clip-rule="evenodd" d="M5.12563 29.8744C5.12563 29.8744 3.23347 26.1612 3.69458 23.2184C1.28764 21.4636 0 19.5794 0 17.5C0 15.4206 1.28764 13.5364 3.69458 11.7816C3.23347 8.8388 5.12563 5.12563 5.12563 5.12563C5.12563 5.12563 8.8388 3.23347 11.7816 3.69458C13.5364 1.28764 15.4206 0 17.5 0C19.5794 0 21.4636 1.28764 23.2184 3.69458C26.1612 3.23347 29.8744 5.12563 29.8744 5.12563C29.8744 5.12563 31.7665 8.8388 31.3054 11.7816C33.7124 13.5364 35 15.4206 35 17.5C35 19.5794 33.7124 21.4636 31.3054 23.2184C31.7665 26.1612 29.8744 29.8744 29.8744 29.8744C29.8744 29.8744 26.1612 31.7665 23.2184 31.3054C21.4636 33.7124 19.5794 35 17.5 35C15.4206 35 13.5364 33.7124 11.7816 31.3054C8.8388 31.7665 5.12563 29.8744 5.12563 29.8744Z" fill="#8AB717"/>
<path d="M23.0213 11.6035L16.1917 18.4331L12.544 14.7853L10.2941 17.0352L16.1917 22.9329L25.2712 13.8534L23.0213 11.6035Z" fill="white"/>
</svg>
