<svg width="95" height="98" viewBox="0 0 95 98" fill="none" xmlns="http://www.w3.org/2000/svg">
<mask id="mask0" mask-type="alpha" maskUnits="userSpaceOnUse" x="0" y="0" width="95" height="98">
<path fill-rule="evenodd" clip-rule="evenodd" d="M14 70V94H27V70H14ZM11.5 66C10.6716 66 10 66.6716 10 67.5V96.5C10 97.3284 10.6716 98 11.5 98H29.5C30.3284 98 31 97.3284 31 96.5V67.5C31 66.6716 30.3284 66 29.5 66H11.5Z" fill="#F2F2F2"/>
<path d="M4 94H91V4H4V24C4 24 4 25.5 2.5 25.5H1.5C0 25.5 0 24 0 24V1.5C0 0.671572 0.671573 0 1.5 0H93.5C94.3284 0 95 0.671573 95 1.5V96.5C95 97.3284 94.3284 98 93.5 98H1.5C0.671571 98 0 97.3284 0 96.5V32C0 32 0 30.5 1.5 30.5H2.5C4 30.5 4 32 4 32V94Z" fill="#F2F2F2"/>
<path fill-rule="evenodd" clip-rule="evenodd" d="M41 59V94H54V59H41ZM38.5 55C37.6716 55 37 55.6716 37 56.5V96.5C37 97.3284 37.6716 98 38.5 98H56.5C57.3284 98 58 97.3284 58 96.5V56.5C58 55.6716 57.3284 55 56.5 55H38.5Z" fill="#F2F2F2"/>
<path fill-rule="evenodd" clip-rule="evenodd" d="M68 46V94H81V46H68ZM65.5 42C64.6716 42 64 42.6716 64 43.5V96.5C64 97.3284 64.6716 98 65.5 98H83.5C84.3284 98 85 97.3284 85 96.5V43.5C85 42.6716 84.3284 42 83.5 42H65.5Z" fill="#F2F2F2"/>
<rect x="13" y="12" width="69" height="4" rx="1.5" fill="#F2F2F2"/>
<rect x="13" y="22" width="69" height="4" rx="1.5" fill="#F2F2F2"/>
<rect x="13" y="32" width="35" height="4" rx="1.5" fill="#F2F2F2"/>
<rect x="13" y="42" width="20" height="4" rx="1.5" fill="#F2F2F2"/>
</mask>
<g mask="url(#mask0)">
<rect y="-3" width="88" height="97" fill="#F2F2F2"/>
</g>
</svg>
