<svg width="17" height="16" viewBox="0 0 17 16" fill="none" xmlns="http://www.w3.org/2000/svg">
<path fill-rule="evenodd" clip-rule="evenodd" d="M8.08295 0.000488281C12.5012 0.000488281 16.0829 3.58221 16.0829 8.00049C16.0829 12.4188 12.5012 16.0005 8.08295 16.0005C3.66467 16.0005 0.0829468 12.4188 0.0829468 8.00049C0.0829468 3.58221 3.66467 0.000488281 8.08295 0.000488281ZM14.5711 8.87061C13.8 9.27165 12.7846 9.607 11.6315 9.83821C11.4676 11.5124 11.0799 12.9903 10.516 14.0788C12.6681 13.2166 14.2557 11.2445 14.5711 8.87061ZM10.2548 8.58558C10.2614 8.39297 10.2648 8.19783 10.2648 8.00049C10.2648 4.35248 9.10578 1.45503 8.08295 1.45503C7.06011 1.45503 5.90113 4.35248 5.90113 8.00049C5.90113 8.20919 5.90492 8.41543 5.91227 8.61882C6.59452 8.69014 7.32351 8.72775 8.08295 8.72775C8.83062 8.72775 9.56421 8.67502 10.2548 8.58558ZM11.7166 8.33075C11.7184 8.22119 11.7193 8.11108 11.7193 8.00049C11.7193 5.58039 11.2789 3.39489 10.516 1.92217C12.6805 2.78937 14.274 4.77922 14.5764 7.17149C14.2342 7.55562 13.1547 8.01193 11.7166 8.33075ZM6.03124 10.0931C6.68368 10.1519 7.37086 10.1823 8.08295 10.1823C8.78355 10.1823 9.47382 10.1426 10.1377 10.0689C9.80965 12.6854 8.90258 14.5459 8.08295 14.5459C7.26583 14.5459 6.36183 12.6968 6.03124 10.0931ZM4.45062 8.40064C4.0332 8.31736 3.64417 8.21931 3.28895 8.10776C2.38681 7.82446 1.79727 7.47723 1.58524 7.20586C1.87661 4.79829 3.47504 2.79352 5.64989 1.92217C4.88699 3.39489 4.44658 5.58039 4.44658 8.00049C4.44658 8.13462 4.44794 8.26803 4.45062 8.40064ZM4.5405 9.89926C4.70779 11.5483 5.09289 13.0036 5.64989 14.0788C3.53514 13.2315 1.96539 11.3126 1.61237 8.99377C2.37127 9.38904 3.37264 9.69627 4.5405 9.89926Z" fill="white"/>
</svg>
