<svg width="91" height="91" viewBox="0 0 91 91" fill="none" xmlns="http://www.w3.org/2000/svg">
<path d="M65.6726 79.5543H43.9844C42.8798 79.5543 41.9844 78.6589 41.9844 77.5543V13.625C41.9844 12.5204 42.8798 11.625 43.9844 11.625H65.6726V16.8503H47.2097V74.329H65.6726V79.5543Z" fill="#5A5A5A"/>
<path d="M31.366 42.9766L26.1406 45.5892L31.366 48.2019H65.679V42.9766H31.366Z" fill="#5A5A5A"/>
<path d="M5.23633 16.8496C5.23633 11.1025 9.93945 6.39941 15.6865 6.39941C21.4346 6.39941 26.1377 11.1025 26.1377 16.8496C26.1377 22.5977 21.4346 27.3008 15.6865 27.3008C9.93945 27.3008 5.23633 22.5977 5.23633 16.8496Z" fill="#9173D0"/>
<path d="M0 42.9766C0 34.3545 7.05371 27.3008 15.6758 27.3008C24.2979 27.3008 31.3516 34.3545 31.3516 42.9766V48.2021H2C0.895508 48.2021 0 47.3066 0 46.2021V42.9766Z" fill="#9173D0"/>
<path fill-rule="evenodd" clip-rule="evenodd" d="M64 4C64 1.79102 65.791 0 68 0H86.127C88.3359 0 90.127 1.79102 90.127 4V22.3008C90.127 24.5098 88.3359 26.3008 86.127 26.3008H68C65.791 26.3008 64 24.5098 64 22.3008V4ZM86.0166 9.35449C85.9863 9.15039 85.8926 8.9541 85.7354 8.79688L83.4863 6.54883C83.0967 6.15918 82.4668 6.1582 82.0752 6.5459L76.7734 11.8018L74.1602 14.4141L71.4717 11.7666C71.0801 11.3809 70.4512 11.3838 70.0625 11.7715L67.8105 14.0234C67.4219 14.4131 67.4199 15.0439 67.8086 15.4346L73.4531 21.1221C73.8438 21.5146 74.4785 21.5166 74.8701 21.125L76.7734 19.2217L85.7373 10.21C85.9697 9.97656 86.0625 9.65723 86.0166 9.35449Z" fill="#F48920"/>
<path fill-rule="evenodd" clip-rule="evenodd" d="M64 36C64 33.791 65.791 32 68 32H86.127C88.3359 32 90.127 33.791 90.127 36V54.3008C90.127 56.5098 88.3359 58.3008 86.127 58.3008H68C65.791 58.3008 64 56.5098 64 54.3008V36ZM86.0166 41.3545C85.9863 41.1504 85.8926 40.9541 85.7354 40.7969L83.4863 38.5488C83.0967 38.1592 82.4668 38.1582 82.0752 38.5459L76.7734 43.8018L74.1602 46.4141L71.4717 43.7666C71.0801 43.3809 70.4512 43.3838 70.0625 43.7715L67.8105 46.0234C67.4219 46.4131 67.4199 47.0439 67.8086 47.4346L73.4531 53.1221C73.8438 53.5146 74.4785 53.5166 74.8701 53.125L76.7734 51.2217L85.7373 42.21C85.9697 41.9766 86.0625 41.6572 86.0166 41.3545Z" fill="#F48920"/>
<path fill-rule="evenodd" clip-rule="evenodd" d="M64 68C64 65.791 65.791 64 68 64H86.127C88.3359 64 90.127 65.791 90.127 68V86.3008C90.127 88.5098 88.3359 90.3008 86.127 90.3008H68C65.791 90.3008 64 88.5098 64 86.3008V68ZM86.0166 73.3545C85.9863 73.1504 85.8926 72.9541 85.7354 72.7969L83.4863 70.5488C83.0967 70.1592 82.4668 70.1582 82.0752 70.5459L76.7734 75.8018L74.1602 78.4141L71.4717 75.7666C71.0801 75.3809 70.4512 75.3838 70.0625 75.7715L67.8105 78.0234C67.4219 78.4131 67.4199 79.0439 67.8086 79.4346L73.4531 85.1221C73.8438 85.5146 74.4785 85.5166 74.8701 85.125L76.7734 83.2217L85.7373 74.21C85.9697 73.9766 86.0625 73.6572 86.0166 73.3545Z" fill="#F48920"/>
</svg>
