<svg width="16" height="16" viewBox="0 0 16 16" fill="none" xmlns="http://www.w3.org/2000/svg">
<path fill-rule="evenodd" clip-rule="evenodd" d="M13.1328 1.4958L9.2455 5.36849L10.0625 6.18242L13.948 2.31151L14.3052 5.51362L15.449 5.38701L14.9175 0.541003L10.0417 0L9.91458 1.13956L13.1328 1.4958ZM15.9918 12.6619C16.01 12.7862 15.9973 12.9131 15.955 13.0315C15.9128 13.1498 15.8421 13.2561 15.7492 13.341L13.4383 15.5626C13.3294 15.6853 13.1955 15.7834 13.0455 15.8504C12.893 15.9261 12.7291 15.9767 12.5602 16H12.2367C11.8877 15.9874 11.5401 15.9489 11.1968 15.8849C10.5919 15.775 10.0023 15.5934 9.44061 15.3439C8.61417 14.9852 7.8215 14.5537 7.07201 14.0547C6.05686 13.3668 5.11596 12.576 4.26435 11.695C3.55678 11.0059 2.90394 10.2632 2.3117 9.47344C1.87959 8.84584 1.49345 8.18803 1.15628 7.50512C0.854907 6.98338 0.59975 6.43647 0.393708 5.8706C0.254828 5.45702 0.146697 5.03382 0.0701916 4.60442C0.0183069 4.32743 -0.00492295 4.04586 0.000866668 3.76414V3.45335C0.0242838 3.28515 0.0750145 3.12187 0.151071 2.9699C0.222106 2.80996 0.328795 2.66824 0.463033 2.55552L2.77386 0.31093C2.89755 0.170086 3.07182 0.0832781 3.25914 0.0692057C3.39664 0.0692057 3.53043 0.113635 3.64043 0.195823C3.754 0.282025 3.85173 0.387176 3.92928 0.506612L5.77794 3.9368C5.8532 4.1253 5.8532 4.33534 5.77794 4.52385C5.74324 4.7282 5.64646 4.91702 5.50064 5.06485L4.66875 5.89362C4.66042 5.92765 4.66042 5.96318 4.66875 5.99722C4.66091 6.03906 4.66091 6.08199 4.66875 6.12383C4.72142 6.39551 4.81082 6.65881 4.93449 6.90656C5.11862 7.2472 5.32713 7.57418 5.55842 7.88497C5.90425 8.36593 6.2908 8.8165 6.71383 9.23172C7.13793 9.68218 7.59773 10.0979 8.08878 10.4749C8.40544 10.7078 8.7374 10.9193 9.08243 11.108C9.27637 11.2121 9.4819 11.2932 9.6948 11.3497H9.90278H10.0183C10.0525 11.358 10.0881 11.358 10.1223 11.3497L11.116 10.3598C11.31 10.1878 11.5611 10.0935 11.8208 10.095C11.9814 10.0867 12.1413 10.1226 12.2829 10.1986L15.5528 12.1209C15.66 12.1765 15.7539 12.2547 15.8277 12.3502C15.9015 12.4456 15.9536 12.5559 15.9803 12.6734L15.9918 12.6619Z" fill="#00A5B2"/>
</svg>
