<svg width="16" height="12" viewBox="0 0 16 12" fill="none" xmlns="http://www.w3.org/2000/svg">
<path fill-rule="evenodd" clip-rule="evenodd" d="M7 2.5C7 3.88071 5.88071 5 4.5 5C3.11929 5 2 3.88071 2 2.5C2 1.11929 3.11929 0 4.5 0C5.88071 0 7 1.11929 7 2.5ZM14 2.5C14 3.88071 12.8807 5 11.5 5C10.1193 5 9 3.88071 9 2.5C9 1.11929 10.1193 0 11.5 0C12.8807 0 14 1.11929 14 2.5Z" fill="#D6AE6F"/>
<path fill-rule="evenodd" clip-rule="evenodd" d="M9 11.9998V8.85982C9 7.04982 7 5.56982 4.5 5.56982C2 5.56982 0 7.04982 0 8.85982V11.9998H9ZM2.64844 5.88031L4.48844 8.24031L6.34844 5.86031C5.75713 5.66947 5.13977 5.57164 4.51844 5.57031C3.88248 5.57236 3.25103 5.67704 2.64844 5.88031ZM4 7V6H5V7H4Z" fill="#FF8F00"/>
<path fill-rule="evenodd" clip-rule="evenodd" d="M16 11.9998V8.85982C16 7.04982 14 5.56982 11.5 5.56982C9 5.56982 7 7.04982 7 8.85982V11.9998H16ZM9.64844 5.88031L11.4884 8.24031L13.3484 5.86031C12.7571 5.66947 12.1398 5.57164 11.5184 5.57031C10.8825 5.57236 10.251 5.67704 9.64844 5.88031ZM11 7V6H12V7H11Z" fill="#00A5B2"/>
</svg>
