<svg width="16" height="17" viewBox="0 0 16 17" fill="none" xmlns="http://www.w3.org/2000/svg">
<path fill-rule="evenodd" clip-rule="evenodd" d="M3.39945 0C4.02537 0 4.53278 0.507411 4.53278 1.13333V2.26667H11.3326V1.13333C11.3326 0.507411 11.8401 0 12.466 0C13.0919 0 13.5993 0.507411 13.5993 1.13333V2.26667L15.8667 2.26666V3.40001V6.8V17H0V6.8V3.40001V2.26666H2.26611V1.13333C2.26611 0.507411 2.77352 0 3.39945 0ZM1.13333 15.8667V6.8H14.7333V15.8667H1.13333ZM3.39917 10.2H5.66584V12.4667H3.39917V10.2ZM9.06708 10.2H6.80042V12.4667H9.06708V10.2ZM10.1996 10.2H12.4663V12.4667H10.1996V10.2Z" fill="#5C839E"/>
</svg>
